<svg width="32" height="32" viewBox="0 0 32 32" fill="none" xmlns="http://www.w3.org/2000/svg">
<path d="M26 16C26 21.523 21.523 26 16 26C10.477 26 6 21.523 6 16C6 10.477 10.477 6 16 6C21.523 6 26 10.477 26 16ZM13.254 24.047C12.954 23.6136 12.6968 23.1521 12.486 22.669C12.082 21.759 11.764 20.684 11.551 19.5H8.251C8.73084 20.559 9.42219 21.5086 10.2826 22.2906C11.1429 23.0725 12.1541 23.6702 13.254 24.047ZM13.857 22.059C14.193 22.816 14.575 23.383 14.96 23.749C15.342 24.113 15.692 24.25 16 24.25C16.308 24.25 16.658 24.113 17.04 23.75C17.425 23.383 17.807 22.816 18.143 22.06C18.464 21.337 18.731 20.47 18.923 19.5H13.076C13.268 20.47 13.535 21.337 13.856 22.06L13.857 22.059ZM12.75 16C12.75 16.691 12.786 17.36 12.853 18H19.147C19.214 17.36 19.25 16.691 19.25 16C19.25 15.309 19.214 14.64 19.147 14H12.853C12.786 14.64 12.75 15.309 12.75 16ZM11.345 14H7.737C7.57922 14.655 7.49967 15.3263 7.5 16C7.5 16.689 7.582 17.359 7.737 18H11.345C11.2162 16.6698 11.2162 15.3302 11.345 14ZM13.077 12.5H18.922C18.732 11.53 18.464 10.663 18.143 9.94C17.807 9.184 17.425 8.617 17.04 8.25C16.658 7.887 16.308 7.75 16 7.75C15.692 7.75 15.342 7.887 14.96 8.25C14.575 8.617 14.193 9.184 13.857 9.94C13.536 10.663 13.269 11.53 13.077 12.5ZM20.654 14C20.783 15.3302 20.783 16.6698 20.654 18H24.264C24.4215 17.345 24.5007 16.6737 24.5 16C24.5003 15.3263 24.4208 14.655 24.263 14H20.654ZM23.748 12.5C23.2683 11.4411 22.5771 10.4915 21.7169 9.7096C20.8567 8.92765 19.8457 8.32988 18.746 7.953C19.033 8.361 19.289 8.826 19.514 9.331C19.918 10.241 20.236 11.316 20.449 12.5H23.749H23.748ZM11.551 12.5C11.764 11.316 12.082 10.24 12.486 9.331C12.711 8.826 12.966 8.361 13.254 7.953C12.1543 8.32988 11.1433 8.92765 10.2831 9.7096C9.42293 10.4915 8.73173 11.4411 8.252 12.5H11.551ZM19.514 22.669C19.289 23.174 19.034 23.639 18.746 24.047C19.8457 23.6701 20.8567 23.0723 21.7169 22.2904C22.5771 21.5085 23.2683 20.5589 23.748 19.5H20.448C20.236 20.684 19.918 21.76 19.514 22.669Z" fill="white"/>
</svg>
